<svg version="1.1" id="layer_1" xmlns="http://www.w3.org/2000/svg" xmlns:xlink="http://www.w3.org/1999/xlink" x="0px"
        y="0px" viewBox="0 0 471.5 74" style="enable-background:new 0 0 471.5 74;" xml:space="preserve">
   <g id="XMLID_2_">
       <path id="XMLID_3_" d="M17.3,46.1l-0.5,5.2c-0.2,1.7-0.2,3.3-0.2,5c0,1.5,0.1,3.2,0.4,5.2c-0.2,0.7-0.7,1.3-1.5,1.8
           c-0.8,0.5-1.6,0.7-2.5,0.7c-2.7,0-4-1.7-4-5.1c0-1.5,0.4-5.1,1.3-10.8c0.6-4.1,0.9-7.1,0.9-9.1c0-0.1-0.1-0.3-0.4-0.4
           c-1.3-0.9-2-1.7-2-2.5c0-1,0.8-2.1,2.3-3.3c0.7-0.6,1.2-1.2,1.3-2c0.2-0.8,0.4-1.9,0.7-3.6c1.1-6.2,2.7-10.7,4.9-13.3
           c2.2-2.6,5-3.9,8.5-3.9c2,0,3.7,0.6,5.1,1.9c1.4,1.3,2.1,2.9,2.1,4.8c0,1.7-0.4,3.5-1.2,5.3s-1.8,2.8-3.1,2.8c-0.6,0-1-0.2-1.4-0.5
           c-0.4-0.4-0.6-0.8-0.6-1.4l0.2-2.5c0-3-0.6-4.6-1.9-4.6c-1.6,0-3.1,2-4.4,6c-1.4,4-2.1,7.4-2.1,10.2c0,0.3,0.2,0.4,0.6,0.4
           c4,0,6.9,0,8.6-0.1c1.7,0,2.5,0.6,2.5,1.9c0,1.3-1,2.2-3,2.9S23.5,38,21.3,38c-1.5,0.1-2.5,0.3-2.9,0.4
           C17.9,41.3,17.6,43.9,17.3,46.1L17.3,46.1z"/>
       <path id="XMLID_5_" d="M52.2,50.3c-1.9,3.4-4,6.1-6.5,8.1c-2.5,2-5,3-7.5,3c-1.5,0-3-0.8-4.6-2.4c-1.5-1.6-2.3-4-2.3-7.3
           c0-2.3,0.6-5.8,1.8-10.5c1-3.9,1.5-6.8,1.5-8.8c0.8-1.6,2-2.5,3.7-2.5c1.1,0,2,0.4,2.7,1.1c0.7,0.8,1,1.5,1,2.3
           c0,1.4-0.5,3.4-1.5,5.9c-0.6,1.5-1.2,3.7-1.8,6.5c-0.7,2.8-1,4.6-1,5.3c0,2.6,0.5,3.9,1.6,3.9c1.7,0,4-1.6,6.9-4.9
           c2.9-3.3,4.8-6.6,5.7-10c0.9-3.3,1.7-5.5,2.3-6.6c0.7-1,1.7-1.6,2.9-1.6c2,0,3,1.1,3,3.4c0,0.3-0.2,1-0.5,2
           c-1.2,3.5-1.7,7.4-1.7,11.7c0,5.1,0.9,8.1,2.6,9.1c0.6,0.3,0.8,0.7,0.8,1.2c0,0.7-0.5,1.4-1.5,2s-1.9,0.9-2.8,0.9
           c-1.5,0-2.7-1.1-3.6-3.3C52.6,56.9,52.2,53.9,52.2,50.3z"/>
       <path id="XMLID_7_" d="M75.3,46.5l0.5-0.9c2.4-4.7,4.9-8.6,7.6-11.6s5.4-4.4,8-4.4c2,0,3.6,0.5,4.9,1.6c1.3,1.1,1.9,2.4,1.9,3.9
           c0,0.9-0.2,1.7-0.6,2.4c-0.4,0.7-1,1-1.8,1c-1.2,0-2.3-0.5-3.3-1.5c-0.7-0.6-1.3-1-1.7-1c-1.5,0-3.9,2.3-7.4,6.8
           c-3.4,4.6-5.5,9.7-6.2,15.4c-0.2,1.6-0.7,2.8-1.4,3.4c-0.7,0.7-1.7,1-3,1c-1.3,0-2.3-0.8-2.9-2.3c-0.6-1.5-0.8-4-0.8-7.5
           c0-1.4,0-3.3,0.1-5.8c0.1-2.3,0.3-5.1,0.7-8.4c0.1-0.9,0.2-1.5,0.2-2c0.2-1.9,0.4-3.2,0.6-3.9c0.2-0.7,0.7-1.4,1.6-2
           c0.8-0.6,1.7-0.9,2.7-0.9c1.1,0,1.9,0.3,2.4,0.9c0.5,0.6,0.8,1.3,0.8,2c0,0.9-0.4,2.8-1.3,5.7c-0.3,1-0.6,2.2-0.8,3.6L75.3,46.5z"
           />
       <path id="XMLID_9_" d="M123.1,56.7c-0.9-1.8-1.6-5-2.1-9.8c-0.4-5-1.4-7.5-2.9-7.5c-1.4,0-3.8,2.6-7.3,7.8c-3.5,5.2-5.6,9-6.4,11.5
           c-0.2,0.7-0.5,1.4-1,1.8c-0.5,0.5-1,0.7-1.4,0.7c-3,0-4.5-1.4-4.5-4.1c0-0.9,0.3-3,0.9-6.3c0.8-4.2,1.1-9.4,1.1-15.5
           c0-0.9,0.4-1.9,1.2-2.9c0.8-1,1.7-1.6,2.5-1.6c1.1,0,2,0.3,2.6,0.8c0.6,0.6,0.9,2.1,0.9,4.5c0,1.9-0.6,5.4-1.7,10.8
           c4.2-9.9,9-14.9,14.2-14.9c4.5,0,7.2,3.6,8,10.7c0.8,7.3,1.7,10.9,2.7,10.9c0.4,0,1-0.1,1.6-0.3c0.7-0.2,1.3-0.4,1.7-0.4
           c0.9,0,1.4,0.5,1.4,1.6c0,1-0.6,2.1-1.9,3.2c-1.3,1.1-2.9,1.7-4.9,1.7C125.6,59.7,124,58.7,123.1,56.7L123.1,56.7z"/>
       <path id="XMLID_11_" d="M140.2,41.5L140.2,41.5c0.6-3.5,0.9-5.6,0.9-6.1c0-1.4,0.3-2.7,1-3.6c0.6-1,1.5-1.5,2.7-1.5
           c1.3,0,2.4,0.3,3.1,0.9c0.7,0.6,1.1,1.3,1.1,2.1c0,0.8-0.4,2.4-1.1,4.8l-0.2,0.6c-1.1,3.8-1.7,6.8-1.9,9.2
           c-0.2,2.4-0.3,4.3-0.3,5.8c0,1.2,0.2,2.8,0.6,4.8c0.1,0.4,0.1,0.6,0.1,0.9c0,0.4-0.4,1.1-1.3,1.8s-1.8,1.1-2.7,1.1
           c-2.6,0-3.9-2-3.9-5.9c0-3.3,0.5-7.4,1.4-12.1C139.9,43.5,140.1,42.5,140.2,41.5z M154.4,17.5c0,1.4-0.6,2.6-1.9,3.6
           c-1.3,1-2.3,1.6-3.3,1.6c-1.2,0-2.2-0.5-3.1-1.5c-0.9-1-1.4-2-1.4-2.9c0-1.4,0.4-2.5,1.3-3.4c0.9-0.9,2.2-1.3,3.9-1.3
           c1.3,0,2.4,0.4,3.2,1.2C154,15.5,154.4,16.4,154.4,17.5z"/>
       <path id="XMLID_14_" d="M167.3,37.2c-0.2,0-0.7,2.2-1.7,6.5c-0.9,4.4-1.4,7-1.4,7.9c0,1.6,0.2,2.7,0.5,3.4c0.3,0.6,0.9,1,1.7,1
           c1.1,0,2.1-0.2,3.1-0.6c1-0.4,2.3-1.2,4-2.6c1-0.8,1.9-1.3,2.6-1.3c0.6,0,1,0.2,1.4,0.5c0.3,0.3,0.5,0.7,0.5,1.1
           c0,1.7-1.4,3.7-4.2,5.8c-2.8,2.2-5.7,3.3-8.8,3.3c-2.6,0-4.5-0.8-5.9-2.3c-1.4-1.5-2-3.7-2-6.6c0-2.6,1-7.9,3-15.8
           c-1.3,0.1-2.1,0.2-2.6,0.2h-0.6c-0.9,0-1.8-0.3-2.7-0.9c-0.9-0.6-1.4-1.5-1.4-2.8c0-1.6,0.9-2.5,2.8-2.5l6.3-0.2
           c0.8-2.4,1.7-5.5,2.6-9.3c0.5-2.4,1.8-3.6,3.7-3.6c1.1,0,1.9,0.3,2.5,1c0.6,0.7,0.9,1.4,0.9,2.2c0,0.3-0.8,3.3-2.5,9.1
           c6.2-0.5,9.6-0.8,10.2-0.8c1,0,1.7,0.2,2.1,0.5c0.3,0.3,0.5,0.9,0.5,1.7c0,1.7-1.5,2.8-4.4,3.3L167.3,37.2z"/>
       <path id="XMLID_16_" d="M204,50.3c-1.9,3.4-4,6.1-6.5,8.1c-2.5,2-5,3-7.5,3c-1.5,0-3-0.8-4.6-2.4c-1.5-1.6-2.3-4-2.3-7.3
           c0-2.3,0.6-5.8,1.8-10.5c1-3.9,1.5-6.8,1.5-8.8c0.8-1.6,2-2.5,3.7-2.5c1.1,0,2,0.4,2.7,1.1c0.7,0.8,1,1.5,1,2.3
           c0,1.4-0.5,3.4-1.5,5.9c-0.6,1.5-1.2,3.7-1.8,6.5c-0.7,2.8-1,4.6-1,5.3c0,2.6,0.5,3.9,1.6,3.9c1.7,0,4-1.6,6.9-4.9
           c2.9-3.3,4.8-6.6,5.7-10c0.9-3.3,1.7-5.5,2.3-6.6c0.7-1,1.7-1.6,2.9-1.6c2,0,3,1.1,3,3.4c0,0.3-0.2,1-0.5,2
           c-1.2,3.5-1.7,7.4-1.7,11.7c0,5.1,0.9,8.1,2.6,9.1c0.6,0.3,0.8,0.7,0.8,1.2c0,0.7-0.5,1.4-1.5,2s-1.9,0.9-2.8,0.9
           c-1.5,0-2.7-1.1-3.6-3.3C204.4,56.9,204,53.9,204,50.3z"/>
       <path id="XMLID_18_" d="M227.2,46.5l0.5-0.9c2.4-4.7,4.9-8.6,7.6-11.6s5.4-4.4,8-4.4c2,0,3.6,0.5,4.9,1.6c1.3,1.1,1.9,2.4,1.9,3.9
           c0,0.9-0.2,1.7-0.6,2.4c-0.4,0.7-1,1-1.8,1c-1.2,0-2.3-0.5-3.3-1.5c-0.7-0.6-1.3-1-1.7-1c-1.5,0-3.9,2.3-7.4,6.8
           c-3.4,4.6-5.5,9.7-6.2,15.4c-0.2,1.6-0.7,2.8-1.4,3.4c-0.7,0.7-1.7,1-3,1c-1.3,0-2.3-0.8-2.9-2.3c-0.6-1.5-0.8-4-0.8-7.5
           c0-1.4,0-3.3,0.1-5.8c0.1-2.3,0.3-5.1,0.7-8.4c0.1-0.9,0.2-1.5,0.2-2c0.2-1.9,0.4-3.2,0.6-3.9c0.2-0.7,0.7-1.4,1.6-2
           c0.8-0.6,1.7-0.9,2.7-0.9c1.1,0,1.9,0.3,2.4,0.9c0.5,0.6,0.8,1.3,0.8,2c0,0.9-0.4,2.8-1.3,5.7c-0.3,1-0.6,2.2-0.8,3.6L227.2,46.5z"
           />
       <path id="XMLID_20_" d="M276.5,50.9c0,2-1.7,4.5-5.1,7.3c-3.4,2.8-7.3,4.2-11.6,4.2c-3.3,0-5.9-1-7.8-3.1c-1.9-2.1-2.8-5-2.8-8.7
           c0-5.5,1.9-10.6,5.8-15.4c3.9-4.8,8-7.2,12.4-7.2c2.2,0,3.9,0.7,5.3,2.1c1.3,1.4,2,3,2,5c0,3.4-1.6,6.6-4.9,9.7
           c-3.3,3.1-7.4,5.2-12.5,6.4c-0.6,0.1-0.9,0.5-0.9,1.1c0,0.9,0.4,1.8,1.2,2.7c0.8,0.8,1.9,1.3,3.3,1.3c3.9,0,7.8-2,11.7-6.1
           c0.7-0.8,1.5-1.2,2.2-1.2C275.9,49,276.5,49.6,276.5,50.9z M256.8,45.7c3.1-0.6,5.8-1.9,8.2-4c2.4-2,3.5-3.8,3.5-5.5
           c0-0.6-0.2-1.2-0.5-1.6c-0.4-0.4-0.8-0.7-1.4-0.7c-1.7,0-3.6,1.3-5.7,3.8C258.9,40.3,257.5,42.9,256.8,45.7z"/>
       <path id="XMLID_23_" d="M293.2,41c4.5,0,7.7-0.1,9.7-0.4c0.8-0.1,1.7-0.2,2.6-0.2c0.4,0,1.4,0.2,2.7,0.7c1.4,0.5,2.2,1,2.5,1.5
           c0.3,0.5,0.4,1,0.4,1.5c0,1.8-1.1,2.7-3.4,2.7c-0.3,0-1.2-0.2-2.9-0.6c-0.3-0.1-0.6-0.1-0.7-0.1l-2.7,0.2c-0.4,0-1.9-0.1-4.5-0.3
           c-0.8-0.1-3.2,0-7.3,0.2c-2.3,0.1-3.9,0-4.6-0.4c-0.8-0.4-1.2-1.1-1.2-2.1c0-1.1,0.7-1.9,2.1-2.4c1.4-0.5,3.1-0.8,5.1-0.8
           C291.6,40.7,292.3,40.8,293.2,41z"/>
       <path id="XMLID_25_" d="M333.5,53.6c-0.1-1.1-1.8-2.3-5-3.9c-4-1.9-6.6-3.6-7.7-5c-1.1-1.4-1.7-2.9-1.7-4.6c0-3.5,1.9-6.5,5.8-9.1
           c3.9-2.6,7.5-3.9,10.9-3.9c3.3,0,5,1.4,5,4.3c0,0.8-0.4,1.4-1.1,2.1c-0.8,0.6-1.4,0.9-1.9,0.9c-0.2,0-0.6-0.1-1.1-0.4
           c-0.5-0.3-1-0.4-1.3-0.4c-1.7,0-3.7,0.6-5.7,1.8s-3.1,2.5-3.1,4.1c0,0.8,0.4,1.5,1.1,2.2c0.7,0.7,2.3,1.6,4.5,2.7
           c3.4,1.6,5.6,3,6.7,4.3s1.6,2.7,1.6,4.3c0,2.9-1.9,5.2-5.8,7.1s-8.2,2.9-13,2.9c-3.5,0-5.3-1.3-5.3-3.8c0-0.9,0.4-1.7,1.1-2.4
           c0.7-0.7,1.6-1,2.5-1c0.4,0,0.9,0.1,1.7,0.4c0.8,0.3,1.5,0.4,2.2,0.4c1.8,0,3.8-0.3,5.8-0.9S332.9,54.4,333.5,53.6z"/>
       <path id="XMLID_27_" d="M357,37.2c-0.2,0-0.7,2.2-1.7,6.5c-0.9,4.4-1.4,7-1.4,7.9c0,1.6,0.2,2.7,0.5,3.4c0.3,0.6,0.9,1,1.7,1
           c1.1,0,2.1-0.2,3.1-0.6s2.3-1.2,4-2.6c1-0.8,1.9-1.3,2.6-1.3c0.6,0,1,0.2,1.4,0.5s0.5,0.7,0.5,1.1c0,1.7-1.4,3.7-4.2,5.8
           s-5.7,3.3-8.8,3.3c-2.6,0-4.5-0.8-5.9-2.3s-2-3.7-2-6.6c0-2.6,1-7.9,3-15.8c-1.3,0.1-2.1,0.2-2.6,0.2h-0.6c-0.9,0-1.8-0.3-2.7-0.9
           s-1.4-1.5-1.4-2.8c0-1.6,0.9-2.5,2.8-2.5l6.3-0.2c0.8-2.4,1.7-5.5,2.6-9.3c0.5-2.4,1.8-3.6,3.7-3.6c1.1,0,1.9,0.3,2.5,1
           c0.6,0.7,0.9,1.4,0.9,2.2c0,0.3-0.8,3.3-2.5,9.1c6.2-0.5,9.6-0.8,10.2-0.8c1,0,1.7,0.2,2.1,0.5c0.3,0.3,0.5,0.9,0.5,1.7
           c0,1.7-1.5,2.8-4.4,3.3L357,37.2z"/>
       <path id="XMLID_29_" d="M400.7,46.1c-1.3,4.6-3.8,8.4-7.5,11.6s-7.3,4.7-11,4.7c-2.9,0-5.3-1.1-7.1-3.2s-2.8-4.7-2.8-7.8
           c0-5,1.7-10,5.2-14.9c3.4-4.9,7.6-7.3,12.5-7.3c3.3,0,6,1.2,8.1,3.7c2.1,2.5,3.1,5.4,3.1,8.8C401.2,43.2,401.1,44.7,400.7,46.1
           L400.7,46.1z M385.5,36.9c-1.4,1.2-2.7,3.1-4,5.8c-1.3,2.7-2,5.3-2,8c0,1.6,0.3,3,0.9,4s1.4,1.6,2.4,1.6c2.4,0,4.9-1.4,7.6-4.3
           s3.9-6.1,3.9-9.7c0-2-0.4-3.7-1.3-5c-0.8-1.3-2-1.9-3.6-1.9C388,35.4,386.7,35.9,385.5,36.9L385.5,36.9z"/>
       <path id="XMLID_32_" d="M414.2,46.5l0.5-0.9c2.4-4.7,4.9-8.6,7.6-11.6s5.4-4.4,8-4.4c2,0,3.6,0.5,4.9,1.6c1.3,1.1,1.9,2.4,1.9,3.9
           c0,0.9-0.2,1.7-0.6,2.4s-1,1-1.8,1c-1.2,0-2.3-0.5-3.3-1.5c-0.7-0.6-1.3-1-1.7-1c-1.5,0-3.9,2.3-7.4,6.8c-3.4,4.6-5.5,9.7-6.2,15.4
           c-0.2,1.6-0.7,2.8-1.4,3.4c-0.7,0.7-1.7,1-3,1c-1.3,0-2.3-0.8-2.9-2.3s-0.8-4-0.8-7.5c0-1.4,0-3.3,0.1-5.8c0.1-2.3,0.3-5.1,0.7-8.4
           c0.1-0.9,0.2-1.5,0.2-2c0.2-1.9,0.4-3.2,0.6-3.9c0.2-0.7,0.7-1.4,1.6-2c0.8-0.6,1.7-0.9,2.7-0.9c1.1,0,1.9,0.3,2.4,0.9
           c0.5,0.6,0.8,1.3,0.8,2c0,0.9-0.4,2.8-1.3,5.7c-0.3,1-0.6,2.2-0.8,3.6L414.2,46.5z"/>
       <path id="XMLID_34_" d="M463.5,50.9c0,2-1.7,4.5-5.1,7.3s-7.3,4.2-11.6,4.2c-3.3,0-5.9-1-7.8-3.1s-2.8-5-2.8-8.7
           c0-5.5,1.9-10.6,5.8-15.4c3.9-4.8,8-7.2,12.4-7.2c2.2,0,3.9,0.7,5.3,2.1c1.3,1.4,2,3,2,5c0,3.4-1.6,6.6-4.9,9.7s-7.4,5.2-12.5,6.4
           c-0.6,0.1-0.9,0.5-0.9,1.1c0,0.9,0.4,1.8,1.2,2.7s1.9,1.3,3.3,1.3c3.9,0,7.8-2,11.7-6.1c0.7-0.8,1.5-1.2,2.2-1.2
           C462.9,49,463.5,49.6,463.5,50.9z M443.9,45.7c3.1-0.6,5.8-1.9,8.2-4c2.4-2,3.5-3.8,3.5-5.5c0-0.6-0.2-1.2-0.5-1.6
           s-0.8-0.7-1.4-0.7c-1.7,0-3.6,1.3-5.7,3.8C445.9,40.3,444.5,42.9,443.9,45.7z"/>
   </g>
   </svg>